<?xml version="1.0" encoding="UTF-8"?><svg id="a" xmlns="http://www.w3.org/2000/svg" xmlns:xlink="http://www.w3.org/1999/xlink" viewBox="0 0 1378.76 1417.13"><defs><style>.d{fill:#fff;}.e{fill:none;stroke:#002262;stroke-miterlimit:10;stroke-width:6px;}.f{fill:#002262;}.g{filter:url(#b);}</style><filter id="b" filterUnits="userSpaceOnUse"><feOffset dx="-2" dy="3"/><feGaussianBlur result="c" stdDeviation="3"/><feFlood flood-color="#000" flood-opacity=".81"/><feComposite in2="c" operator="in"/><feComposite in="SourceGraphic"/></filter></defs><g class="g"><path class="f" d="M912.76,394.79c-75.14-34.88-198.57-127.91-444.55-42.94-60.83,15.21-68.28,11.33-92.73,14.91,12.65,2.9,68.19,12.91,126.23,23.18-80.73-9.47-168.3-18.32-168.3-18.32-28.02,.59-123.1,10.65-139.21,3.49-1.79,8.35,9.54,22.66,0,39.36-9.54,16.7-26.23,98.39,17.89,134.77,16.7,8.94,38.78,6.82,38.78,6.82,0,0-11.23-56.63,32.77-91.54-14.75,15.49-23.81,36.45-23.81,59.53,0,47.67,38.64,86.32,86.32,86.32s84.51-36.88,86.25-83.02c2.84,10.65,5.17,22.47,6.89,35.61,5.39,.06,13.88,.06,24.79,0h414.26v-9.74c.59-10.36,3.34-37.42,16.14-62.7-4.35,10.31-6.76,21.65-6.76,33.54,0,47.67,38.64,86.32,86.32,86.32s86.32-38.65,86.32-86.32c0-34.48-20.23-64.24-49.46-78.07,29.96,12.53,69.58,34.24,68.7,108.83,41.14,0,129.68-5.72,129.68-5.72,0,0,3.43-43.38,3.43-49.35,0,0-98.69-118.37-299.95-104.95Zm-689.94,17.89c-6.86,.9-10.74,7.16-13.42,6.86-2.68-.3-8.35-1.79-4.77-11.03,3.58-9.24,14.02-23.55,14.02-23.55,26.83,.89,11.03,26.84,4.18,27.73Zm119.29,179.79c-33.22,0-60.15-26.93-60.15-60.15,0-12.6,3.88-24.3,10.51-33.96-1.88,5.82-2.9,12.03-2.9,18.48,0,33.22,26.93,60.16,60.15,60.16,20.62,0,38.81-10.38,49.64-26.19-7.8,24.18-30.48,41.67-57.25,41.67Zm484.77-79.61l-352.1-22.71c-70.37-74.91-151.04-97.59-214.96-31.85,50.7-68.06,83.55-72.81,607.72-.6-12.81,12.76-33.33,37.72-40.66,55.16Zm2.64-95.69s-21.87-31.92-40.65-31.92-57.69,6.71-57.69,6.71c0,0-10.28,10.73,11.18,19.68,21.47,8.94,57.24,9.39,58.59,9.39,.32,0,2.62,1.62,5.95,4.08-32.5-3.7-116.96-13.33-204.75-23.48l-100.84-29.5s166.08-71.74,381.14,35.78l-52.92,9.26Zm197.73,133.63c-7.8,24.18-30.48,41.67-57.25,41.67-33.22,0-60.16-26.93-60.16-60.15,0-12.6,3.88-24.3,10.51-33.96-1.88,5.82-2.91,12.03-2.91,18.48,0,33.22,26.93,60.16,60.16,60.16,20.62,0,38.81-10.38,49.64-26.19Zm-99.59-135.14c110.92-28.62,239.73,62.02,239.73,62.02-118.07-60.23-212.89-60.82-239.73-62.02Zm265.96,119.27l-29.97,1.42c-2.23-17.55-3.13-37.79,4.92-34.81s26.68,21.31,26.68,21.31l-1.63,12.09Z"/><path class="f" d="M1370.43,357.4c1.47-8.53,2.86-16.56,4.18-24.07l4.15-23.46-22.77-7.02c-248.99-76.71-412.28-151-505.42-199.82-100.87-52.88-143.43-88.06-143.8-88.38l-17.38-14.65-17.38,14.65c-1.65,1.39-170.58,140.75-649.22,288.2l-22.77,7.02,4.15,23.46c1.33,7.51,2.71,15.55,4.18,24.07,10.51,60.96,25.02,145.06,52.58,242H3.73v438.39l35.03-10.95c53.74-16.79,119.1-31.17,192.51-42.75,111.1,173.81,260.05,316.35,444.4,424.96l13.7,8.07,13.7-8.07c184.35-108.61,333.3-251.15,444.4-424.96,73.41,11.57,138.77,25.95,192.52,42.75l35.03,10.95v-438.39h-57.18c27.57-96.94,42.07-181.04,52.58-242Zm-681.05,996.99c-181.73-109.85-309.18-243.17-399.59-378.7,6.54-.85,13.13-1.68,19.77-2.49,87.9,126.73,209.58,250.61,379.82,353.51,170.23-102.9,291.92-226.79,379.82-353.51,6.64,.81,13.23,1.64,19.77,2.49-90.41,135.53-217.86,268.85-399.59,378.7Zm631.68-701.02l-3,302.77c-42.41-11.53-87.67-12.9-140.29-21.82-18.48-3.14-37.49-6.1-56.99-8.86-17.43-2.47-35.25-4.79-53.4-6.95-117.63-14-244.81-21.1-378-21.1s-260.37,7.1-378,21.1c-18.15,2.16-35.96,4.48-53.4,6.95-19.5,2.76-38.51,5.72-56.99,8.86-52.63,8.93-100.88,19.3-143.29,30.82v-311.77H1321.05ZM116.99,599.4c-29.49-100.47-44.64-188.32-55.48-251.17-.05-.29-.1-.58-.15-.87,242.07-75.99,402.22-149.32,494.79-198.07,69.01-36.34,111.63-64.63,133.23-80.16,21.59,15.53,64.22,43.82,133.23,80.16,92.57,48.74,252.73,122.07,494.79,198.07-.05,.29-.1,.58-.15,.87-10.84,62.85-25.99,150.7-55.48,251.17H116.99Z"/><polygon class="d" points="826.94 962.15 644.26 1202.61 910.19 1158.87 826.94 962.15"/><polygon class="d" points="572.24 993.31 472.2 1162.25 769.01 1202.61 572.24 993.31"/></g><g><path class="f" d="M66.42,923.29v-257.28c11.19-.13,22.37-.23,33.55-.31,12.37,9.37,24.19,19.17,35.83,29.42,7.5,17.16,14.52,34.48,21.36,51.91-.19-27.11-.4-54.23-.9-81.34,10.65,.05,21.31,.12,31.96,.22,7.81,9.5,15.09,19.42,22.07,29.54,1.53,75.69,2.04,151.45,1.15,227.16-11.16,1.9-22.31,3.87-33.45,5.92-7.36-7.7-13.9-16.01-20.45-24.39-13.02-27.84-24.18-56.39-35.01-85.14,0,40.3,0,80.61-.27,120.91-11.47,2.54-22.91,5.21-34.33,7.99-7.87-7.63-14.68-16.08-21.53-24.61Zm31.2-11.11c.12-57.38,.12-114.76,.05-172.14,20.32,53.37,38.62,107.61,62.49,159.55,10.98-2.02,16.45-2.99,27.36-4.84,.27-74.8,.23-149.65-1.59-224.43-10.39-.08-15.6-.11-26.06-.15,.92,51.44,1.07,102.89,1.16,154.34-19.76-51.52-36.87-105.22-62.55-154.22-9.45,.07-18.9,.18-28.35,.32,.04,82.6,.03,165.2,0,247.79,9.14-2.15,18.3-4.22,27.48-6.22Z"/><path class="f" d="M257.66,887.99c-14.67-73.72-23.96-149.22-43.78-221.81,11.8,.13,23.6,.27,35.4,.42,9.17,8.73,17.95,17.87,26.5,27.2,3.15,15.12,6.08,30.26,8.89,45.45,3.6-24.05,7.19-48.11,11.34-72.08,14.23,.16,28.45,.3,42.68,.43,9.61,8.65,18.93,17.61,28.07,26.75,3.5,14.71,6.77,29.45,9.88,44.24,3.89-23.59,7.76-47.19,11.94-70.74,13.2,.03,26.4,.01,39.6-.04,7.21,9.02,14.23,18.12,21.16,27.36-16.22,68.34-30.43,137.24-49.46,204.87-10.29,.83-20.57,1.72-30.85,2.66-6.86-8.27-13.43-16.75-19.98-25.25-5.68-29.29-11.2-58.6-16.9-87.89-7.23,39.95-14.25,80.1-24.27,119.47-10.03,1.16-20.06,2.4-30.07,3.72-7.08-7.97-13.62-16.34-20.14-24.77Zm31.42-7.88c11.38-56.46,20.32-113.36,30.16-170.1,12.35,54.13,22.26,108.75,32.71,163.27,9.77-.96,19.55-1.86,29.33-2.73,15.65-65.82,28.31-132.29,43.23-198.27-10.9,.02-21.81,.01-32.71,0-8.48,48.63-16.18,97.39-24.63,146.02-8.71-49.06-17.64-98.13-30.33-146.35-12.61-.11-25.23-.24-37.84-.39-8.78,51.19-15.78,102.67-23.84,153.97-8.22-51.62-15.62-103.68-27.66-154.59-9.61-.12-19.23-.23-28.84-.33,17.67,70.21,27.91,142.12,41.88,213.11,9.5-1.27,19.01-2.48,28.53-3.62Z"/><path class="f" d="M499.83,865.31c23.3-65.89,44.16-132.62,67.95-198.35,14.35,.02,28.71,.05,43.06,.1,9.3,8.45,18.4,17.12,27.34,25.94,15.69,64.6,26.78,130.21,42.73,194.74-14.76,.16-29.52,.39-44.28,.67-8.35-8.36-16.44-16.98-24.33-25.78-.71-3.89-1.06-5.86-1.77-9.83-15.82,.3-31.63,.69-47.45,1.14-4.65,12.45-9.45,24.85-14.47,37.15-11.1,.46-22.2,.96-33.3,1.48-5.32-8.99-10.46-18.11-15.48-27.27Zm34.49-4.34c4.76-13.04,9.35-26.14,13.9-39.26,20.31-.52,40.61-.9,60.92-1.23,2.18,12.76,4.37,25.51,6.64,38.25,11.09-.2,22.18-.38,33.28-.53-13.14-62.32-23.95-125.16-40.34-186.75-12.78-.04-25.55-.06-38.33-.06-22.86,63.26-43.21,127.38-65.81,190.73,9.91-.42,19.83-.8,29.74-1.15Zm53.4-157.24c6.35,27.58,11.94,55.29,17.3,83.08-15.57,.18-31.13,.42-46.7,.71,9.81-27.92,19.51-55.89,29.4-83.79Zm12.18,78c-1.86-9.74-2.8-14.62-4.73-24.31-3.36,9.74-5.05,14.66-8.48,24.48,5.27-.07,7.91-.11,13.2-.17Z"/><path class="f" d="M711.12,868.74c-6.9-8.62-10.31-13.05-17.07-22.07-14.67-19.89-14.86-45.85-13.8-69.43,2.54-36.57,4.75-73.15,6.22-109.78,11.91,.07,23.81,.13,35.72,.18,7.52,8.6,14.87,17.27,22.15,26.07-1.27,36.46-3.08,72.89-5.1,109.32-.4,7.04-.23,13.48,.64,19.19,1.71,.43,3.56,.57,5.49,.6,24.54,.38,31.16-28.24,31.76-47.62,1.45-35.79,2.85-71.6,3.2-107.42,11.54-.02,23.08-.05,34.63-.1,7.14,8.65,14.06,17.37,20.89,26.27-.53,35.84-1.56,71.67-2.6,107.5-2.59,43.43-19.84,89.87-70.78,89.34-18.95-.2-39.5-6.04-51.35-22.03Zm98.8-90.54c1.15-35.38,2.3-70.78,2.48-106.18-9.48,.04-18.97,.06-28.45,.07-.52,34.4-1.7,68.77-3.06,103.14-.38,22.45-9.42,52.59-35.82,52.56-26.72-.02-31.87-31.04-30.61-52.64,2.04-34.38,3.83-68.77,4.98-103.2-9.79-.04-19.57-.09-29.36-.14-1.34,35.17-3.55,70.31-5.95,105.42-3.13,42.34,9.59,84.78,58.75,85.2,49.01,.42,65.75-41.13,67.04-84.23Z"/><path class="f" d="M880.31,865.75c.69-42.53,1.98-85.04,3.04-127.56-7.88-.09-10-.11-16.5-.18-6.53-9.89-13.24-19.67-20.15-29.31,.21-13.77,.39-27.54,.38-41.31,39-.49,77.99-1.31,117-1.32,7.52,9.04,14.7,18.38,21.61,27.89,.04,15.56-.03,31.12-.13,46.68-12.91-.48-25.82-.89-38.73-1.25-1.06,52.68-2.55,105.36-2.73,158.05-13.27-1.08-26.55-2.11-39.83-3.11-8.17-9.38-16.12-18.94-23.97-28.59Zm36.42-.75c.98-53.26,2.75-106.5,3.82-159.76,13.6,.08,27.2,.19,40.79,.39,.12-11.67,.18-23.35,.16-35.02-36.96,0-73.9,.69-110.85,1.13-.05,11.2-.17,22.39-.32,33.59,12.66,0,25.33-.02,37.99-.08-1.05,52.49-2.85,104.97-3.78,157.46,10.73,.75,21.46,1.5,32.18,2.3Z"/><path class="f" d="M1028.04,874.2c-5.83-7.83-8.71-11.85-14.44-19.99-17.56-24.19-25.11-55.68-24.48-84.57,.9-41.18,19.06-107.06,72.46-105.9,22.72,.5,42.12,15.38,54.9,33.21,6.01,8.36,9.04,12.7,15.15,21.63,19.27,28.39,29.83,61.97,30.87,95.81,1.39,45.36-14.03,105.97-72.03,99.73-27.41-2.95-45.76-19.09-62.42-39.93Zm109.59-94.88c-2.16-41.54-21.68-109.82-75.81-111-51.13-1.12-68.72,63.24-68.96,101.52-.17,27.72,6.14,58.38,23.56,80.86,12.98,16.75,30.22,29.95,52.5,32.55,56.37,6.59,70.84-62.93,68.7-103.93Zm-115.3-7.84c.55-24.13,10.01-67.1,41.15-65.8,32.22,1.34,44.05,46.05,45.14,71.53,1.02,24.09-6.95,69.9-41.07,66.95-32.12-2.78-45.83-45.89-45.22-72.67Zm82.66,5.47c-.07-9.4-1.16-22.27-4.94-29.2-3.37-6.2-11.14-9.91-17.84-10.13-29.74-.95-37.22,39.57-37.6,61.91-.19,10.98,1.39,22.79,6.5,32.9,4.94,3.5,10.5,5.82,16.27,6.24,31.11,2.23,37.78-38.58,37.61-61.72Z"/><path class="f" d="M1196.67,914.53c-8.07-10.19-15.81-20.63-23.34-31.22-1.16-19.15-2.21-38.29-3.21-57.45,13.05,12.26,28.13,25.35,46.68,27.21,8.34,.84,15.44-.72,19.86-4.25-5.75-3.8-11.92-7.63-17.21-11.2-16.45-10.94-25.31-26.69-34.64-43.62-4.06-7.24-6.09-10.85-10.14-18.01-7.15-12.23-9.77-26.91-10.72-40.74-2.5-36.42,16.26-69.05,55.64-68.27,16.49,.32,34.52,3.87,49.18,12,9.42,10.4,18.27,21.24,26.99,32.22-.16,20.45-.36,40.9-.57,61.34-13.54-11.93-29.35-24.46-47.35-25.88-9.46-.75-17.88,2.59-22.15,8.35,19.42,8.99,34.73,21.17,47.33,38.49,5.56,8.94,11.05,17.93,16.46,26.95,9.82,15.8,13.75,35.76,12.88,53.66-1.61,32.99-18.6,66.42-57.84,59.94-17.12-2.83-33.59-9.24-47.84-19.54Zm81.56-77.33c.4-14.15-3.03-29.18-10.21-41.72-12.21-19.88-33.01-28.27-52.51-38.96-9.26-4.69-17.86-12.69-18.31-23.47-.63-15.09,14.6-23.73,28.61-22.7,15.02,1.11,27.87,8.07,40.35,16.29-.25-14.63-.51-29.27-.85-43.9-13.69-7.21-30.14-10.59-45.4-10.93-36.62-.82-54.39,29.88-52.17,63.63,1.88,28.52,15.37,50,39.43,65.17,14.52,9.15,37.23,18.21,38.45,37.84,.96,15.42-15.93,21.75-28.54,20.49-16.47-1.65-31.35-12.08-42.91-23.33,.8,15.07,1.63,30.13,2.53,45.19,13.95,10.5,30.64,17.34,47.62,19.87,38.57,5.74,53.05-32.69,53.92-63.46Z"/></g><path class="d" d="M472.2,1162.25s83.04,83.9,217.17,164.47c128.63-75.1,220.81-167.85,220.81-167.85"/><line class="e" x1="633.98" y1="1052.58" x2="766.77" y2="1198.43"/></svg>